<svg fill="none" height="80" viewBox="0 0 112 80" width="112" xmlns="http://www.w3.org/2000/svg" xmlns:xlink="http://www.w3.org/1999/xlink"><filter id="a" color-interpolation-filters="sRGB" filterUnits="userSpaceOnUse" height="73.1276" width="73.256" x="5.86896" y="6.66568"><feFlood flood-opacity="0" result="BackgroundImageFix"/><feBlend in="SourceGraphic" in2="BackgroundImageFix" mode="normal" result="shape"/><feGaussianBlur result="effect1_foregroundBlur_1_265" stdDeviation="9.5"/></filter><filter id="b" color-interpolation-filters="sRGB" filterUnits="userSpaceOnUse" height="123.5" width="131.667" x="4.26501" y="-23.6833"><feFlood flood-opacity="0" result="BackgroundImageFix"/><feGaussianBlur in="BackgroundImageFix" stdDeviation="12"/><feComposite in2="SourceAlpha" operator="in" result="effect1_backgroundBlur_1_265"/><feBlend in="SourceGraphic" in2="effect1_backgroundBlur_1_265" mode="normal" result="shape"/></filter><filter id="c" color-interpolation-filters="sRGB" filterUnits="userSpaceOnUse" height="62.3675" width="37.1447" x="51.498" y="11.1871"><feFlood flood-opacity="0" result="BackgroundImageFix"/><feGaussianBlur in="BackgroundImageFix" stdDeviation="7.5"/><feComposite in2="SourceAlpha" operator="in" result="effect1_backgroundBlur_1_265"/><feColorMatrix in="SourceAlpha" result="hardAlpha" type="matrix" values="0 0 0 0 0 0 0 0 0 0 0 0 0 0 0 0 0 0 127 0"/><feOffset dx="5" dy="5"/><feGaussianBlur stdDeviation="5"/><feColorMatrix type="matrix" values="0 0 0 0 1 0 0 0 0 0.376471 0 0 0 0 0.580392 0 0 0 1 0"/><feBlend in2="effect1_backgroundBlur_1_265" mode="normal" result="effect2_dropShadow_1_265"/><feBlend in="SourceGraphic" in2="effect2_dropShadow_1_265" mode="normal" result="shape"/></filter><linearGradient id="d" gradientUnits="userSpaceOnUse" x1="43.257" x2="-.541218" y1="38.0304" y2="79.4193"><stop offset="0" stop-color="#ff759f"/><stop offset="1" stop-color="#ff196e"/></linearGradient><linearGradient id="e"><stop offset="0" stop-color="#fff" stop-opacity=".25"/><stop offset="1" stop-color="#fff" stop-opacity="0"/></linearGradient><linearGradient id="f" gradientUnits="userSpaceOnUse" x1="42.2656" x2="87.8828" xlink:href="#e" y1="9.8798" y2="72.6553"/><linearGradient id="g" gradientUnits="userSpaceOnUse" x1="70.0712" x2="63.5112" y1="28.0128" y2="27.4053"><stop offset="0" stop-color="#fff" stop-opacity=".75"/><stop offset="1" stop-color="#fff" stop-opacity=".2"/></linearGradient><linearGradient id="h" gradientUnits="userSpaceOnUse" x1="67.6354" x2="78.3807" xlink:href="#e" y1="29.9579" y2="32.8956"/><mask id="i" fill="#fff"><path clip-rule="evenodd" d="m70.0908 44.7185c1.9596 0 3.5519-1.6225 3.5519-3.5647v-11.4466c0-1.9462-1.5923-3.5201-3.5519-3.5201-1.9597 0-3.5928 1.5739-3.5928 3.5201v11.4466c0 1.9422 1.6331 3.5647 3.5928 3.5647zm-3.5928 10.2754c0 1.9381 1.6331 3.5607 3.5928 3.5607 1.9596 0 3.5519-1.6226 3.5519-3.6052 0-1.9381-1.5923-3.5201-3.5519-3.5201-1.9597 0-3.5928 1.6184-3.5928 3.5646z" fill="#fff" fill-rule="evenodd"/></mask><path d="m71.591 43.0084-32.4239-32.4801c-3.4131-3.48331-9.0839-3.58066-12.6089-.1753-1.2287 1.1376-2.0711 2.6213-2.4675 4.1859l-11.9121 44.68c-.6328 4.8229 2.8402 9.2602 7.7314 9.8575.9717.0953 1.9729.0567 2.932-.1389l44.5681-11.942c2.2509-.7324 4.0846-2.2909 5.1853-4.3935 1.0991-2.1086 1.3012-4.5201.5732-6.7503-.3204-.9521-.7833-1.8273-1.5776-2.8433z" fill="url(#d)"/><g filter="url(#a)"><path d="m58.9743 45.8193-18.5895-18.6217c-1.9568-1.9971-5.208-2.0529-7.229-.1005-.7044.6522-1.1874 1.5028-1.4147 2.3998l-6.8294 25.6163c-.3628 2.765 1.6283 5.3091 4.4325 5.6515.5572.0547 1.1311.0325 1.681-.0796l25.5521-6.8467c1.2905-.4199 2.3418-1.3134 2.9729-2.5189.6301-1.2089.746-2.5915.3285-3.8701-.1836-.5459-.449-1.0477-.9044-1.6301z" fill="#e31352"/></g><g filter="url(#b)"><path d="m109.895 58.7173-29.6806-51.51181c-3.1028-5.50278-10.1658-7.525868-15.7182-4.44673-1.9188 1.01154-3.4702 2.5855-4.4909 4.41032l-29.885 51.91232c-2.4087 5.8224.4491 12.5391 6.369 14.9263 1.1839.4451 2.4496.7324 3.7152.8093h59.7699c3.0616-.1619 5.8786-1.4971 7.9616-3.7589 2.082-2.2699 3.143-5.2196 2.98-8.2542-.082-1.2988-.368-2.5491-1.021-4.0866z" fill="#ff749f" fill-opacity=".35"/><path d="m110.355 58.5217c-.007-.0185-.016-.0366-.027-.0541l-29.6781-51.50769c-.0003-.0006-.0006-.0012-.001-.0018-3.2368-5.73826-10.5982-7.848092-16.3905-4.63918-2.0058 1.05861-3.6235 2.7015-4.6879 4.60333-.0005.00091-.0011.00183-.0016.00274l-29.8819 51.907c-.0108.0187-.0204.0382-.0287.0583-2.5169 6.0839.4712 13.0919 6.644 15.5811l-.0001.0002.0111.0042c1.2265.461 2.5411.7601 3.8609.8402.0021.0002.0042.0003.0063.0004.008.0004.016.0006.024.0006h59.7699c.0088 0 .0176-.0003.0266-.0007 3.193-.1688 6.133-1.5626 8.302-3.9196l.001-.0006c2.172-2.368 3.282-5.4488 3.111-8.6191v-.0045c-.086-1.3605-.386-2.6661-1.06-4.2508z" stroke="url(#f)" stroke-linecap="round" stroke-linejoin="round"/></g><g filter="url(#c)"><path clip-rule="evenodd" d="m70.0908 44.7185c1.9596 0 3.5519-1.6225 3.5519-3.5647v-11.4466c0-1.9462-1.5923-3.5201-3.5519-3.5201-1.9597 0-3.5928 1.5739-3.5928 3.5201v11.4466c0 1.9422 1.6331 3.5647 3.5928 3.5647zm-3.5928 10.2754c0 1.9381 1.6331 3.5607 3.5928 3.5607 1.9596 0 3.5519-1.6226 3.5519-3.6052 0-1.9381-1.5923-3.5201-3.5519-3.5201-1.9597 0-3.5928 1.6184-3.5928 3.5646z" fill="url(#g)" fill-rule="evenodd"/><path d="m73.2427 41.1538c0 1.7244-1.4163 3.1647-3.1519 3.1647v.8c2.1837 0 3.9519-1.8047 3.9519-3.9647zm0-11.4466v11.4466h.8v-11.4466zm-3.1519-3.1201c1.7424 0 3.1519 1.3985 3.1519 3.1201h.8c0-2.1708-1.775-3.9201-3.9519-3.9201zm-3.1928 3.1201c0-1.7157 1.4443-3.1201 3.1928-3.1201v-.8c-2.1709 0-3.9928 1.7435-3.9928 3.9201zm0 11.4466v-11.4466h-.8v11.4466zm3.1928 3.1647c-1.7416 0-3.1928-1.4462-3.1928-3.1647h-.8c0 2.1659 1.815 3.9647 3.9928 3.9647zm0 13.8361c-1.7419 0-3.1928-1.4466-3.1928-3.1607h-.8c0 2.1621 1.8153 3.9607 3.9928 3.9607zm3.1519-3.2052c0 1.7678-1.4192 3.2052-3.1519 3.2052v.8c2.1866 0 3.9519-1.8077 3.9519-4.0052zm-3.1519-3.1201c1.7418 0 3.1519 1.406 3.1519 3.1201h.8c0-2.1621-1.7744-3.9201-3.9519-3.9201zm-3.1928 3.1646c0-1.7222 1.4509-3.1646 3.1928-3.1646v-.8c-2.1775 0-3.9928 1.7944-3.9928 3.9646z" fill="url(#h)" mask="url(#i)"/></g></svg>