<svg fill="none" height="102" viewBox="0 0 107 102" width="107" xmlns="http://www.w3.org/2000/svg" xmlns:xlink="http://www.w3.org/1999/xlink"><filter id="a" color-interpolation-filters="sRGB" filterUnits="userSpaceOnUse" height="68.4057" width="70.7529" x="1.64941" y="4.17639"><feFlood flood-opacity="0" result="BackgroundImageFix"/><feBlend in="SourceGraphic" in2="BackgroundImageFix" mode="normal" result="shape"/><feGaussianBlur result="effect1_foregroundBlur_1_468" stdDeviation="8"/></filter><filter id="b" color-interpolation-filters="sRGB" filterUnits="userSpaceOnUse" height="130.917" width="122.884" x="6.0368" y="-9.47324"><feFlood flood-opacity="0" result="BackgroundImageFix"/><feGaussianBlur in="BackgroundImageFix" stdDeviation="12"/><feComposite in2="SourceAlpha" operator="in" result="effect1_backgroundBlur_1_468"/><feBlend in="SourceGraphic" in2="effect1_backgroundBlur_1_468" mode="normal" result="shape"/></filter><filter id="c" color-interpolation-filters="sRGB" filterUnits="userSpaceOnUse" height="49.1051" width="60.8754" x="37.576" y="30.8725"><feFlood flood-opacity="0" result="BackgroundImageFix"/><feGaussianBlur in="BackgroundImageFix" stdDeviation="7.5"/><feComposite in2="SourceAlpha" operator="in" result="effect1_backgroundBlur_1_468"/><feColorMatrix in="SourceAlpha" result="hardAlpha" type="matrix" values="0 0 0 0 0 0 0 0 0 0 0 0 0 0 0 0 0 0 127 0"/><feOffset dx="5" dy="5"/><feGaussianBlur stdDeviation="5"/><feColorMatrix type="matrix" values="0 0 0 0 0.454902 0 0 0 0 0.870588 0 0 0 0 0.376471 0 0 0 0.5 0"/><feBlend in2="effect1_backgroundBlur_1_468" mode="normal" result="effect2_dropShadow_1_468"/><feBlend in="SourceGraphic" in2="effect2_dropShadow_1_468" mode="normal" result="shape"/></filter><linearGradient id="d" gradientUnits="userSpaceOnUse" x1="45.209" x2="29.2501" y1="0" y2="59.5331"><stop offset="0" stop-color="#9bf763"/><stop offset="1" stop-color="#26ab5b"/></linearGradient><linearGradient id="e" gradientUnits="userSpaceOnUse" x1="47.3767" x2="91.4625" y1="21.4467" y2="84.9134"><stop offset="0" stop-color="#fff" stop-opacity=".25"/><stop offset="1" stop-color="#fff" stop-opacity="0"/></linearGradient><linearGradient id="f" gradientUnits="userSpaceOnUse" x1="81.1824" x2="48.0532" y1="49.9292" y2="46.3477"><stop offset="0" stop-color="#fff"/><stop offset="1" stop-color="#fff" stop-opacity=".2"/></linearGradient><linearGradient id="g" gradientUnits="userSpaceOnUse" x1="56.3869" x2="81.4621" y1="49.5165" y2="53.5685"><stop offset="0" stop-color="#fff"/><stop offset="1" stop-color="#fff" stop-opacity="0"/></linearGradient><mask id="h" fill="#000" height="93.9684" maskUnits="userSpaceOnUse" width="83.9319" x="24.2964" y="9.2229"><path d="m24.2964 9.2229h83.9319v93.9684h-83.9319z" fill="#fff"/><path d="m60.1416 96.4105c-.4998-.0768-.9819-.2685-1.397-.5713l-13.3766-9.7585c-3.7953-2.7713-6.6525-5.6657-8.7419-8.8472-4.5739-6.9584-6.4352-15.274-5.2325-23.4182l3.948-26.807c.4551-3.0939 2.8767-5.5613 6.0197-6.1475l28.1171-5.2c1.6717-.3222 3.4403-.0583 4.9694.7359l25.4055 13.1074c2.8447 1.4624 4.4487 4.5287 3.9897 7.6181l-3.9508 26.8267c-1.1968 8.133-5.3699 15.5529-11.7483 20.8958-2.9265 2.4506-6.4984 4.3927-10.9166 5.9413l-15.5867 5.4783c-.4841.1727-.9987.2191-1.499.1462z" fill="#000"/></mask><path d="m53.3683 65.8039c-.3293.1901-.702.3051-1.0875.3237l-12.4225.5998c-3.5258.1687-6.5588-.1754-9.2756-1.0476-5.9446-1.906-10.9331-5.8783-14.0431-11.1909l-10.24304-17.4817c-1.18258-2.0174-.91748-4.594.65242-6.4131l14.06472-16.2484c.8301-.9737 1.9917-1.6513 3.2612-1.9071l21.0511-4.3023c2.3546-.48472 4.7325.54867 5.9109 2.565l10.2505 17.4947c3.1082 5.3033 4.1356 11.5901 2.8957 17.7029-.5693 2.8041-1.7556 5.6152-3.6229 8.5948l-6.5807 10.5203c-.2031.3282-.4834.5972-.8112.7899z" fill="url(#d)"/><g filter="url(#a)"><path d="m47.8749 55.3881c-.2233.1289-.4724.2133-.7262.2391l-8.18.8308c-2.3217.2349-4.3006.1367-6.0522-.2974-3.8326-.9482-6.9605-3.2001-8.805-6.3444l-6.0752-10.3466c-.7015-1.1939-.4314-2.785.6673-3.9598l9.8413-10.4951c.5813-.6284 1.3694-1.0875 2.2126-1.2918l13.9841-3.4243c1.5643-.3852 3.0873.1604 3.7861 1.3539l6.0797 10.3542c1.8436 3.1387 2.2841 6.9585 1.2421 10.7559-.4782 1.742-1.362 3.5113-2.6992 5.4094l-4.7133 6.7012c-.1456.2089-.3396.3844-.5621.5149z" fill="#1ea51f" fill-opacity=".5"/></g><g filter="url(#b)"><path d="m60.1416 96.4105c-.4998-.0768-.9819-.2685-1.397-.5713l-13.3766-9.7585c-3.7953-2.7713-6.6525-5.6657-8.7419-8.8472-4.5739-6.9584-6.4352-15.274-5.2325-23.4182l3.948-26.807c.4551-3.0939 2.8767-5.5613 6.0197-6.1475l28.1171-5.2c1.6717-.3222 3.4403-.0583 4.9694.7359l25.4055 13.1074c2.8447 1.4624 4.4487 4.5287 3.9897 7.6181l-3.9508 26.8267c-1.1968 8.133-5.3699 15.5529-11.7483 20.8958-2.9265 2.4506-6.4984 4.3927-10.9166 5.9413l-15.5867 5.4783c-.4841.1727-.9987.2191-1.499.1462z" fill="#72dc60" fill-opacity=".35"/><path d="m59.9896 97.3989c.5458.084 1.0564-.2905 1.1403-.8364.084-.5458-.2905-1.0564-.8363-1.1404zm-1.245-1.5597.5894-.8079zm-13.3766-9.7585-.5897.8076.0004.0003zm-8.7419-8.8472.8358-.5489-.0002-.0004zm-5.2325-23.4182.9892.1461.0001-.0004zm3.948-26.807.9893.1457.0001-.0002zm6.0197-6.1475-.1819-.9833-.0015.0003zm28.1171-5.2.1819.9834.0074-.0015zm4.9694.7359-.461.8874.0025.0013zm25.4055 13.1074-.4585.8887.0013.0007zm3.9897 7.6181-.989-.1468v.0011zm-3.9508 26.8267-.9894-.1457v.0001zm-11.7483 20.8958.642.7667.0001-.0001zm-10.9166 5.9413-.3307-.9437-.0008.0003zm-15.5867 5.4783-.3316-.9434-.0044.0015zm-1.3549-.8433c-.5465-.0797-1.0541.2988-1.1337.8454-.0796.5465.2989 1.0541.8454 1.1337zm.0079.0011c-.3496-.0537-.6801-.1868-.9596-.3908l-1.1788 1.6157c.5507.4018 1.1844.6519 1.8344.7519zm-.9596-.3908-13.3766-9.7585-1.1787 1.6158 13.3765 9.7584zm-13.3762-9.7582c-3.72-2.7163-6.4855-5.5275-8.4959-8.5885l-1.6717 1.0979c2.1685 3.3018 5.1174 6.2795 8.9881 9.1058zm-8.4961-8.5889c-4.441-6.7562-6.2451-14.8249-5.0789-22.7228l-1.9785-.2922c-1.239 8.3905.6794 16.9531 5.3861 24.1136zm-5.0788-22.7232 3.948-26.807-1.9786-.2914-3.9481 26.807zm3.9481-26.8072c.3907-2.6567 2.476-4.7994 5.2136-5.3099l-.3667-1.9661c-3.5484.6617-6.3063 3.4539-6.8256 6.985zm5.2121-5.3097 28.1172-5.2-.3637-1.9666-28.1172 5.2zm28.1246-5.2014c1.4463-.2787 2.9862-.0509 4.3191.6414l.9219-1.7748c-1.7252-.8961-3.7226-1.1961-5.6195-.8304zm4.3216.6427 25.4055 13.1074.9172-1.7774-25.4057-13.1074zm25.4068 13.1081c2.4759 1.2726 3.8519 3.9291 3.4579 6.5819l1.978.2936c.524-3.526-1.308-7.002-4.521-8.6542zm3.4579 6.583-3.9512 26.8267 1.9782.2914 3.952-26.8267zm-3.9512 26.8268c-1.1605 7.887-5.208 15.0872-11.401 20.2748l1.2842 1.5332c6.5637-5.4981 10.8626-13.1379 12.096-21.5168zm-11.4009 20.2747c-2.8157 2.3578-6.2754 4.2466-10.6053 5.7643l.6615 1.8874c4.5064-1.5795 8.1906-3.575 11.2278-6.1183zm-10.6061 5.7646-15.5868 5.4783.6631 1.8868 15.5868-5.4782zm-15.5912 5.4798c-.3257.1162-.6751.1487-1.0189.0986l-.2883 1.9791c.657.0957 1.3367.0352 1.9791-.1939z" fill="url(#e)" mask="url(#h)"/></g><g filter="url(#c)"><path d="m61.8109 64.9431c-.7807-.1161-1.5176-.517-2.0301-1.1873l-6.5918-8.63c-1.0168-1.3393-.7405-3.217.6208-4.1987 1.3619-.9856 3.2937-.7007 4.3152.6353l4.7435 6.2067 15.6518-11.3101c1.366-.985 3.2978-.7 4.3152.6353 1.0209 1.34.744 3.2217-.6167 4.1994l-18.1228 13.0974c-.6833.4945-1.5044.668-2.2851.552z" fill="url(#f)"/><path d="m53.8684 51.0081-.0001.0001c-1.3155.9486-1.5827 2.7624-.5997 4.0572l6.5917 8.6297c.4956.6483 1.2086 1.0366 1.9653 1.149.7563.1124 1.5508-.0557 2.2118-.534v-.0001l18.1228-13.0973.0002-.0002c1.3146-.9446 1.5826-2.7621.5956-4.0576-.9845-1.292-2.8549-1.5682-4.1771-.6148zm0 0c1.3179-.9538 3.1885-.678 4.1771.615l4.7435 6.2067.0591.0773.0789-.057 15.6518-11.3099z" stroke="url(#g)" stroke-opacity=".5" stroke-width=".2"/></g></svg>